HIERARCHY
ROOT Hips
{
	OFFSET 55.310501 45.591206 43.872097
	CHANNELS 6 Xposition Yposition Zposition Zrotation Xrotation Yrotation
	JOINT Chest
	{
		OFFSET -0.153500 1.163101 7.852402
		CHANNELS 6 Xposition Yposition Zposition Zrotation Xrotation Yrotation
		JOINT Chest2
		{
			OFFSET 0.000000 0.000000 3.343300
			CHANNELS 6 Xposition Yposition Zposition Zrotation Xrotation Yrotation
			JOINT Neck
			{
				OFFSET 0.000000 0.000000 7.785500
				CHANNELS 6 Xposition Yposition Zposition Zrotation Xrotation Yrotation
				JOINT Head
				{
					OFFSET 0.000000 0.000000 2.173901
					CHANNELS 6 Xposition Yposition Zposition Zrotation Xrotation Yrotation
					End Site
					{
						OFFSET 0.000000 0.000000 10.528198
					}
				}
			}
			JOINT LeftCollar
			{
				OFFSET 2.676300 -1.652401 4.938301
				CHANNELS 6 Xposition Yposition Zposition Zrotation Xrotation Yrotation
				JOINT LeftShoulder
				{
					OFFSET 4.299000 0.000000 0.000000
					CHANNELS 6 Xposition Yposition Zposition Zrotation Xrotation Yrotation
					JOINT LeftElbow
					{
						OFFSET 0.000000 0.000000 -10.245102
						CHANNELS 6 Xposition Yposition Zposition Zrotation Xrotation Yrotation
						JOINT LeftWrist
						{
							OFFSET 0.000000 0.000000 -12.703300
							CHANNELS 6 Xposition Yposition Zposition Zrotation Xrotation Yrotation
							End Site
							{
								OFFSET 0.000000 0.000000 -2.173901
							}
						}
					}
				}
			}
			JOINT RightCollar
			{
				OFFSET -2.534599 -1.686401 5.195000
				CHANNELS 6 Xposition Yposition Zposition Zrotation Xrotation Yrotation
				JOINT RightShoulder
				{
					OFFSET -4.144100 0.000000 0.000000
					CHANNELS 6 Xposition Yposition Zposition Zrotation Xrotation Yrotation
					JOINT RightElbow
					{
						OFFSET 0.000000 0.000000 -10.116501
						CHANNELS 6 Xposition Yposition Zposition Zrotation Xrotation Yrotation
						JOINT RightWrist
						{
							OFFSET 0.000000 0.000000 -12.937801
							CHANNELS 6 Xposition Yposition Zposition Zrotation Xrotation Yrotation
							End Site
							{
								OFFSET 0.000000 0.000000 -2.173901
							}
						}
					}
				}
			}
		}
	}
	JOINT LeftHip
	{
		OFFSET 2.175598 0.064499 -2.662899
		CHANNELS 6 Xposition Yposition Zposition Zrotation Xrotation Yrotation
		JOINT LeftKnee
		{
			OFFSET 0.000000 -0.000004 -18.585800
			CHANNELS 6 Xposition Yposition Zposition Zrotation Xrotation Yrotation
			JOINT LeftAnkle
			{
				OFFSET 0.000000 0.000000 -18.979500
				CHANNELS 6 Xposition Yposition Zposition Zrotation Xrotation Yrotation
				End Site
				{
					OFFSET 0.000000 -9.264000 0.000000
				}
			}
		}
	}
	JOINT RightHip
	{
		OFFSET -2.092400 -0.058102 -2.581200
		CHANNELS 6 Xposition Yposition Zposition Zrotation Xrotation Yrotation
		JOINT RightKnee
		{
			OFFSET 0.000000 -0.000004 -18.665001
			CHANNELS 6 Xposition Yposition Zposition Zrotation Xrotation Yrotation
			JOINT RightAnkle
			{
				OFFSET 0.000000 0.000000 -18.566601
				CHANNELS 6 Xposition Yposition Zposition Zrotation Xrotation Yrotation
				End Site
				{
					OFFSET 0.000000 -8.497601 0.000000
				}
			}
		}
	}
}
MOTION
Frames: 5
Frame Time: 0.041667
35.620094 34.738499 43.680298 1070.134477 -5.119418 10.816848 -0.153497 1.163099 7.852409 -23.667973 15.509031 4.823784 0.000002 -0.000000 3.343315 6.983499 -6.080570 -0.000758 0.000009 -0.000010 7.785503 44.766118 11.044967 -29.323307 0.000002 0.000009 2.173900 4.618419 5.454145 3.700427 2.676297 -1.652403 4.938302 -9.446522 4.254794 13.665168 4.299000 0.000001 -0.000003 -7.278075 20.715030 -58.380646 0.000000 -0.000000 -10.245104 20.744724 718.412520 -0.232925 0.000008 -0.000015 -12.703297 1405.205199 -193.883061 598.278836 -2.534594 -1.686407 5.194996 -4.512878 6.714849 3.748649 -4.144103 0.000010 -0.000002 34.006306 -14.597419 89.137336 0.000005 0.000004 -10.116505 -85.101493 -25.813076 -126.133199 0.000004 -0.000004 -12.937797 -462.277421 -357.430110 -46.683295 2.175598 0.064510 -2.662896 -443.525929 45.643907 7.294902 0.000003 0.000002 -18.585800 222.562657 -172.467782 -168.061681 0.000004 0.000003 -18.979513 440.580888 43.512994 -161.283388 -2.092396 -0.058099 -2.581183 354.548563 -1.393374 -4.473764 0.000001 -0.000017 -18.665007 -1086.865381 26.706950 -8.157969 0.000006 -0.000001 -18.566607 731.893128 18.219533 19.387548
35.610603 34.727402 43.681000 1070.004212 -5.059977 10.978020 -0.153500 1.163100 7.852411 -23.729419 15.328164 4.642908 -0.000001 0.000003 3.343307 7.011246 -5.971514 -0.005695 0.000002 0.000002 7.785500 44.849570 10.762087 -29.419493 0.000001 -0.000003 2.173910 4.542901 5.353410 3.789290 2.676302 -1.652399 4.938302 -9.301778 4.047900 13.137673 4.298999 0.000003 -0.000008 -7.518409 20.827158 -57.711875 -0.000005 0.000003 -10.245103 20.962554 718.539944 -0.243188 0.000006 -0.000002 -12.703291 1405.024226 -193.851601 598.174580 -2.534595 -1.686397 5.194994 -4.633390 6.491430 3.764274 -4.144106 0.000008 0.000006 33.634833 -14.354153 89.496426 0.000004 0.000002 -10.116499 -85.735034 -25.776722 -126.535893 0.000001 0.000001 -12.937799 -462.966942 -357.469562 -46.833572 2.175592 0.064509 -2.662892 -453.649581 45.490675 14.403148 -0.000002 0.000000 -18.585804 225.884451 -170.922383 -167.462674 -0.000015 0.000002 -18.979511 444.081633 42.763668 -162.356930 -2.092396 -0.058107 -2.581195 354.635716 -1.222349 -4.542184 0.000000 -0.000016 -18.665009 -1087.637903 26.343609 -8.158748 0.000011 -0.000007 -18.566601 732.633138 18.524689 19.489291
35.599297 34.715305 43.681091 1069.884656 -4.940240 11.206275 -0.153502 1.163101 7.852405 -23.826562 15.113274 4.353805 0.000006 0.000006 3.343300 7.034892 -5.861309 -0.009992 0.000004 -0.000002 7.785506 44.941586 10.498148 -29.465723 0.000004 -0.000002 2.173903 4.526188 5.226853 3.911544 2.676287 -1.652397 4.938302 -9.009481 3.763247 12.688093 4.299002 0.000003 -0.000008 -7.824030 21.058196 -57.096820 -0.000004 0.000003 -10.245097 21.172845 718.617808 -0.254087 0.000002 0.000000 -12.703298 1404.854072 -193.833856 598.028086 -2.534600 -1.686404 5.194999 -4.669791 6.329216 3.805296 -4.144102 0.000006 0.000001 33.209056 -14.267050 89.871240 0.000009 0.000008 -10.116508 -86.311127 -25.791945 -126.958136 0.000012 0.000007 -12.937799 -463.721159 -357.509177 -46.961109 2.175598 0.064499 -2.662895 -468.300719 43.639544 24.651549 0.000009 -0.000003 -18.585796 230.101587 -168.459854 -167.048833 -0.000008 0.000005 -18.979515 449.733341 41.650565 -164.070979 -2.092398 -0.058109 -2.581201 354.704947 -1.125581 -4.701282 -0.000002 -0.000010 -18.665005 -1088.225190 26.029257 -8.190166 0.000011 -0.000004 -18.566605 733.249822 18.749597 19.507372
35.584995 34.701904 43.680092 1069.753189 -4.812529 11.482850 -0.153497 1.163102 7.852406 -23.874805 14.916681 3.981406 0.000010 -0.000003 3.343301 7.039933 -5.751552 -0.014181 0.000002 -0.000006 7.785491 45.037376 10.254803 -29.485968 0.000006 0.000003 2.173905 4.519615 5.076413 4.080250 2.676298 -1.652403 4.938298 -8.699403 3.464870 12.294098 4.299002 0.000005 -0.000008 -8.131323 21.273550 -56.525826 -0.000007 -0.000000 -10.245103 21.316037 718.695290 -0.265032 0.000008 -0.000010 -12.703292 1404.702169 -193.816535 597.938966 -2.534589 -1.686410 5.194990 -4.676020 6.183680 3.902457 -4.144103 0.000006 0.000004 32.687731 -14.120419 90.187546 0.000006 0.000006 -10.116501 -86.999132 -25.835735 -127.421796 0.000006 -0.000008 -12.937798 -464.472862 -357.545568 -47.069129 2.175603 0.064509 -2.662891 -481.437140 40.188693 33.454058 -0.000002 0.000002 -18.585798 233.754810 -166.145827 -167.008261 -0.000001 0.000008 -18.979511 455.476028 40.565477 -165.742641 -2.092395 -0.058107 -2.581199 354.821251 -1.036401 -4.918574 0.000004 -0.000012 -18.665003 -1088.580250 25.720954 -8.296539 0.000001 -0.000001 -18.566601 733.672474 18.904080 19.453267
35.568302 34.688206 43.677292 1069.623579 -4.727760 11.737216 -0.153492 1.163106 7.852400 -23.843183 14.764152 3.641182 -0.000002 0.000006 3.343300 7.031626 -5.638792 -0.019868 -0.000005 0.000008 7.785503 45.036724 10.057223 -29.450942 0.000002 0.000007 2.173913 4.542028 4.882027 4.249608 2.676284 -1.652395 4.938306 -8.539893 3.238924 11.876154 4.299009 0.000003 0.000000 -8.402870 21.373457 -55.955741 -0.000004 0.000003 -10.245105 21.386955 718.792934 -0.282800 0.000006 0.000000 -12.703290 1404.619769 -193.798203 597.889133 -2.534602 -1.686393 5.195001 -4.791055 5.952315 4.022821 -4.144110 0.000008 0.000000 32.305176 -13.927620 90.458616 0.000006 -0.000001 -10.116501 -87.784801 -26.007771 -127.840186 0.000001 -0.000003 -12.937793 -465.561649 -357.795990 -47.017359 2.175595 0.064505 -2.662897 -489.720301 36.993961 38.752362 -0.000004 0.000002 -18.585804 235.763322 -164.556756 -167.330072 0.000007 -0.000002 -18.979513 459.800303 39.821502 -166.981828 -2.092396 -0.058107 -2.581203 354.942091 -0.917306 -5.113407 -0.000005 -0.000015 -18.665012 -1088.777288 25.434238 -8.441653 0.000004 -0.000004 -18.566605 733.989122 19.010063 19.338810
